HIERARCHY
ROOT Hips
{
  OFFSET 196.326 95.9168 97.7182
  CHANNELS 6 Xposition Yposition Zposition Zrotation Xrotation Yrotation
  JOINT LeftUpLeg
  {
    OFFSET 8.64259 1.95398 -2.38835
    CHANNELS 3 Zrotation Xrotation Yrotation
    JOINT LeftLeg
    {
      OFFSET 43.7702 0 0
      CHANNELS 3 Zrotation Xrotation Yrotation
      JOINT LeftFoot
      {
        OFFSET 40.6238 0 0
        CHANNELS 3 Zrotation Xrotation Yrotation
        JOINT LeftToeBase
        {
          OFFSET 12.7242 0 0
          CHANNELS 3 Zrotation Xrotation Yrotation
          End Site
          {
            OFFSET 0 0 0
          }
        }
      }
    }
  }
  JOINT RightUpLeg
  {
    OFFSET -8.2249 1.95398 -2.59336
    CHANNELS 3 Zrotation Xrotation Yrotation
    JOINT RightLeg
    {
      OFFSET 43.5653 0 0
      CHANNELS 3 Zrotation Xrotation Yrotation
      JOINT RightFoot
      {
        OFFSET 40.6238 0 0
        CHANNELS 3 Zrotation Xrotation Yrotation
        JOINT RightToeBase
        {
          OFFSET 12.7242 0 0
          CHANNELS 3 Zrotation Xrotation Yrotation
          End Site
          {
            OFFSET 0 0 0
          }
        }
      }
    }
  }
  JOINT Spine
  {
    OFFSET 0.165834 0.87714 6.61349
    CHANNELS 3 Zrotation Xrotation Yrotation
    JOINT Spine1
    {
      OFFSET 7.38963 1.71661e-005 0
      CHANNELS 3 Zrotation Xrotation Yrotation
      JOINT Spine2
      {
        OFFSET 11.9445 1.14441e-005 0
        CHANNELS 3 Zrotation Xrotation Yrotation
        JOINT Spine3
        {
          OFFSET 14.7254 4.19617e-005 0
          CHANNELS 3 Zrotation Xrotation Yrotation
          JOINT Spine4
          {
            OFFSET 10.9679 0 0
            CHANNELS 3 Zrotation Xrotation Yrotation
            JOINT RightShoulder
            {
              OFFSET 2.46616 -1.6653 3.69651
              CHANNELS 3 Zrotation Xrotation Yrotation
              JOINT RightArm
              {
                OFFSET 13.0012 0 0
                CHANNELS 3 Zrotation Xrotation Yrotation
                JOINT RightForeArm
                {
                  OFFSET 28.7848 1.52588e-005 0
                  CHANNELS 3 Zrotation Xrotation Yrotation
                  JOINT RightHand
                  {
                    OFFSET 26.5688 1.52588e-005 0
                    CHANNELS 3 Zrotation Xrotation Yrotation
                    End Site
                    {
                      OFFSET 0 0 0
                    }
                  }
                }
              }
            }
            JOINT LeftShoulder
            {
              OFFSET 2.38034 -1.29275 -3.75231
              CHANNELS 3 Zrotation Xrotation Yrotation
              JOINT LeftArm
              {
                OFFSET 16.3182 6.10351e-005 0
                CHANNELS 3 Zrotation Xrotation Yrotation
                JOINT LeftForeArm
                {
                  OFFSET 27.0901 0 0
                  CHANNELS 3 Zrotation Xrotation Yrotation
                  JOINT LeftHand
                  {
                    OFFSET 24.5451 1.52588e-005 0
                    CHANNELS 3 Zrotation Xrotation Yrotation
                    End Site
                    {
                      OFFSET 0 0 0
                    }
                  }
                }
              }
            }
            JOINT Neck
            {
              OFFSET 5.0226 -0.0266342 0
              CHANNELS 3 Zrotation Xrotation Yrotation
              JOINT Head
              {
                OFFSET 6.69363 2.86102e-005 0
                CHANNELS 3 Zrotation Xrotation Yrotation
                End Site
                {
                  OFFSET 0 0 0
                }
              }
            }
          }
        }
      }
    }
  }
}
MOTION
Frames:	15
Frame Time:	0.0416667
-286.677 84.8994 -284.942 43.9986 -1.633 73.4818 179.963 76.0529 70.0455 -13.044 -39.9358 10.5162 41.9563 -16.2231 -99.6282 3.16362 -35.8742 9.66916 67.8996 80.5731 171.484 -66.1315 -11.6338 8.24233 83.0615 -9.54333 -5.19951 -36.8 -80.2229 90.7514 8.46204 1.80975 -84.074 22.9647 19.7107 7.18748 11.4349 20.0066 6.28252 -11.8778 16.6366 12.8684 8.13485 16.6365 12.8684 140.537 -29.3909 -10.3226 30.2518 -60.0839 9.34126 34.8862 -38.8016 -5.17573 -56.457 -2.83836 2.42952 23.6414 51.614 -60.4705 -12.0557 -11.2099 -144.717 -20.5281 47.4026 -0.0472791 52.0732 4.4631 4.46844 -45.4757 -40.9408 -66.0133 115.395 31.7358 45.046 
-287.154 84.9726 -285.317 43.8708 -1.70265 73.19 -179.651 75.8367 69.7433 -11.3295 -42.8712 10.8947 40.4996 -15.4274 -102.523 1.39763 -36.6591 7.54066 68.8185 80.6552 170.799 -66.7575 -11.6492 8.14784 83.6984 -9.82036 -5.23577 -41.4344 -79.9193 85.6694 8.46357 1.79168 -84.0686 23.0024 19.7107 7.18748 11.4725 20.0066 6.28252 -11.8433 16.6358 12.8802 8.16935 16.6358 12.8802 140.343 -29.3493 -10.5839 30.3648 -61.7634 9.57083 35.6784 -39.637 -5.57957 -54.7097 -3.79991 4.57195 20.9543 51.6318 -59.4018 -11.8402 -9.22729 -143.626 -21.0192 47.4688 -0.0473386 52.221 4.24645 4.02256 -46.2116 -41.5946 -66.1705 117.271 32.3415 44.3911 
-288.497 85.2138 -286.355 43.5875 -1.91921 72.3697 -178.399 75.3512 68.7016 -7.37766 -48.8094 11.6715 38.1533 -14.0026 -108.222 -2.88989 -37.0116 0.715202 72.7619 80.8778 167.534 -68.336 -11.6362 7.86548 85.4006 -10.5839 -5.32606 -51.9334 -78.7428 73.9185 8.46128 1.74773 -84.0586 23.0935 19.707 7.18471 11.5635 20.0028 6.27993 -11.7546 16.6325 12.8853 8.2581 16.6325 12.8853 139.793 -29.2842 -11.3754 30.8067 -66.3375 10.377 37.5627 -41.7982 -7.06781 -48.9094 -6.0484 10.7105 11.7335 51.625 -55.5077 -11.4147 -2.70963 -139.876 -22.5171 48.0941 -0.0495181 52.6406 3.59347 2.69803 -49.045 -43.9056 -66.9927 123.947 33.7223 41.71 
-290.558 85.6266 -287.915 43.3304 -2.29984 71.1072 -176.081 74.9172 66.6605 -2.47394 -56.1552 12.8501 37.4517 -11.7345 -114.481 -6.24173 -33.1007 -10.252 82.1975 81.0957 159.171 -70.3571 -11.4736 7.40533 87.8032 -11.7216 -5.43331 -61.9621 -76.4418 61.9765 8.44298 1.69172 -84.0726 23.2128 19.6636 7.13922 11.6823 19.9574 6.23655 -11.6341 16.6047 12.8272 8.37859 16.6047 12.8272 138.929 -29.2999 -12.7343 32.178 -73.0028 12.3868 39.5191 -44.1967 -10.3477 -38.6769 -7.90002 20.008 -6.17903 51.0018 -47.1721 -11.7217 9.04373 -132.392 -24.934 49.9224 -0.0567607 53.2394 2.41261 0.374505 -57.7664 -49.4476 -70.9037 139.259 32.8888 34.6009 
-293.179 86.1323 -289.845 43.2957 -2.88001 69.4859 -172.365 74.8523 63.316 1.22015 -62.1548 13.7359 39.2906 -10.8826 -119.537 -3.59875 -23.9586 -21.4113 98.7595 80.8234 143.971 -72.431 -11.0472 6.80273 90.5612 -13.1211 -5.52123 -68.3801 -73.2201 53.0889 8.3934 1.6366 -84.1492 23.3411 19.5239 6.98731 11.809 19.8112 6.09144 -11.5033 16.5165 12.64 8.50936 16.5165 12.64 137.762 -29.508 -14.7511 37.5546 -80.9226 18.6943 40.8479 -45.2925 -15.8278 -26.5873 -7.93701 30.644 -34.3951 47.3945 -32.8877 -15.5569 25.8148 -118.341 -27.805 54.3743 -0.0701591 53.6833 0.637589 -3.00213 -90.2678 -58.0237 -92.8945 161.585 17.3266 26.2034 
-296.213 86.6006 -292.013 43.6682 -3.72301 67.5877 -166.523 75.3847 58.0534 1.90132 -66.6503 13.6946 42.913 -11.8966 -123.437 4.91175 -13.7338 -29.3035 119.418 79.1822 124.821 -74.3111 -10.2753 6.10639 93.3392 -14.6595 -5.56728 -71.429 -69.3746 47.0508 8.2918 1.59554 -84.3232 23.4559 19.2291 6.67746 11.9205 19.5032 5.79591 -11.3824 16.3273 12.2548 8.6303 16.3273 12.2548 136.249 -30.0183 -17.5932 109.826 -87.9276 92.1911 41.8704 -44.3586 -22.9113 -16.5608 -6.61797 41.04 -70.3429 35.0894 -15.537 -32.409 42.4483 -86.31 -29.1921 65.6336 -0.102147 53.1959 -1.38863 -6.83683 -4.61241 -26.9861 -15.8332 -80.8063 33.6715 -70.0665 
-299.531 86.8981 -294.312 44.6095 -4.92317 65.5028 -158.173 76.2134 50.5314 -0.645597 -70.0142 12.5982 47.067 -14.3313 -126.226 14.041 -6.2582 -33.5585 137.247 75.5201 108.476 -75.8378 -9.11377 5.35861 95.7527 -16.1755 -5.57206 -72.1434 -65.0289 42.7824 8.10717 1.58047 -84.6304 23.5346 18.6995 6.1624 11.9929 18.9516 5.30655 -11.2893 15.9754 11.6014 8.72329 15.9753 11.6013 134.265 -30.944 -21.5545 -171.008 -81.0031 172.861 43.3688 -41.9232 -30.4608 -10.2955 -5.2053 50.7513 -107.925 7.35735 -5.26055 -60.1114 30.989 -27.7737 158.206 88.1035 -179.077 49.9851 -2.42326 -9.08619 -7.57537 -31.5409 -14.4885 -100.41 27.1047 -49.5344 
-302.488 86.9064 -296.375 41.5751 -3.86454 62.5005 -136.593 82.2759 32.1144 -5.28999 -72.9193 10.6848 50.8028 -17.5398 -128.113 20.7801 -1.71934 -35.3856 161.482 75.4903 80.8673 -76.4555 -7.65654 4.95666 97.3697 -17.4299 -5.64969 -71.3197 -60.1147 39.3441 7.78485 1.03823 -85.2279 24.3718 17.9174 6.15049 12.8151 18.1702 5.33267 -10.3621 15.2372 11.3385 9.65051 15.2372 11.3385 131.545 -32.4178 -27.1505 -165.744 -72.432 179.856 45.6804 -39.0309 -37.6185 -7.3611 -4.44147 59.6605 -150.403 -28.128 -15.0931 -23.2922 -4.828 10.2861 178.35 48.0968 -179.996 41.2711 -2.81368 -11.176 -7.86771 -31.8211 -10.3042 -104.904 17.7422 -39.9707 
-314.108 87.0279 -303.121 127.724 -24.0937 97.1211 -172.9 7.38813 77.17 -8.28244 -73.3819 11.1384 51.9237 -14.9533 -127.352 23.6144 0.267481 -37.6493 161.135 -4.84737 73.3457 -83.8535 -4.42144 -1.55145 96.8718 -18.3614 -4.45582 -69.7895 -54.3004 35.6515 7.93295 8.10229 -92.2385 11.1053 14.757 -5.8779 -0.496482 14.4844 -6.53221 -23.7145 15.8254 -1.06597 -3.7018 15.8255 -1.06598 127.613 -34.5978 -35.2269 -165.021 -64.3347 -177.571 48.622 -36.527 -43.9191 -6.70262 -4.48614 67.4909 159.299 -40.2539 -47.352 32.8309 -5.37512 17.8362 178.507 30.3178 -179.997 34.1029 -3.99903 -16.1945 -7.04655 -30.5063 -5.1771 -106.105 9.64815 -32.3128 
-316.641 86.7557 -305.23 123.835 -26.945 95.1334 -171.729 13.7035 76.5656 -11.3544 -75.8774 9.25794 53.809 -16.3545 -127.825 26.1549 1.75004 -38.0534 161.509 -6.92535 73.9221 -83.5335 -2.49717 -1.73619 95.6233 -18.2508 -4.5433 -66.6503 -47.6917 32.2424 6.14021 8.60847 -91.8971 9.91161 11.3789 -4.68665 -1.71901 11.1618 -5.18762 -24.656 12.2543 -1.00228 -4.64331 12.2543 -1.00229 118.082 -35.9494 -52.5629 -157.971 -54.898 -167.627 51.5346 -34.5462 -50.2391 -7.4144 -5.09171 73.7375 151.903 -29.6939 -56.3007 39.6023 15.3304 18.3508 163.967 73.2362 -179.918 37.1874 -6.22291 -21.2706 3.83315 -23.5213 9.98743 -108.152 3.96006 -21.8319 
-318.782 86.2507 -307 118.893 -29.5445 92.3208 -170.608 20.6877 75.7079 -14.3969 -78.2084 7.59087 54.7684 -17.4933 -128.077 27.4351 2.49455 -38.3725 161.992 -8.12739 74.4716 -82.5197 -1.29641 -1.82138 91.5899 -17.0813 -5.41158 -62.1591 -40.135 28.4623 4.67562 8.56506 -91.2857 9.87786 8.73684 -3.25358 -1.76895 8.58529 -3.63714 -24.5369 9.30735 -0.456399 -4.52426 9.30734 -0.4564 109.007 -38.5516 -69.7891 -157.318 -50.7634 -165.235 55.0623 -34.4872 -53.5453 -8.62491 -6.06534 78.6874 168.599 -23.8185 -49.1088 9.86295 29.5741 33.5852 -22.7889 47.1675 -0.0491636 35.4119 -9.49136 -31.4343 9.38717 -16.8121 14.3737 -105.298 -1.80203 -13.7401 
-320.393 85.5951 -308.308 112.97 -31.7636 88.5864 -169.552 27.8611 74.5294 -16.4725 -80.5146 6.6276 54.8892 -18.3107 -128.203 27.8615 2.75574 -38.686 162.654 -8.20015 74.9039 -80.8815 -0.265484 -1.85654 84.9777 -14.7489 -6.09084 -55.8115 -32.1647 24.5902 3.00295 8.5629 -90.5783 9.79601 5.72406 -1.60265 -1.86356 5.64797 -1.85376 -24.5007 5.94017 0.197797 -4.48806 5.9402 0.197806 98.5932 -39.2257 -88.4133 -153.497 -48.9208 -159.091 58.9833 -35.6796 -54.2318 -9.80456 -7.10043 81.9933 -170.78 -22.839 -35.9604 -16.2914 27.834 35.1487 -21.0132 2.73171 -0.0309307 28.4316 -9.92624 -39.0967 17.4518 -8.834 16.2973 -101.007 -6.13382 -5.0187 
-321.344 84.8661 -309.055 106.531 -33.4989 84.282 -168.599 34.685 73.2272 -16.638 -82.767 7.25949 54.3286 -18.9434 -128.277 27.6549 2.66302 -38.9622 163.517 -7.39525 75.1916 -78.6148 1.03513 -1.89449 76.5666 -11.6405 -5.74163 -47.6519 -24.7656 21.0241 1.78671 8.23743 -89.9776 10.4071 3.56959 -0.268656 -1.25903 3.5543 -0.425706 -23.8323 3.48509 0.817925 -3.81963 3.48509 0.817917 90.7057 -39.4235 -102.359 -150.168 -49.4053 -154.457 63.0915 -37.4743 -51.5382 -10.5594 -7.96437 83.6723 -158.336 -25.8223 -23.9317 -24.8877 22.9476 28.5761 -17.1072 -13.0214 -0.0260064 23.3966 -8.7636 -41.0558 21.8117 -3.87444 14.4161 -93.0103 -8.41295 1.46987 
-321.505 84.151 -309.188 100.433 -34.8136 80.4128 -167.959 40.5563 72.4041 -13.4368 -84.6507 11.2022 53.2855 -19.632 -128.37 26.8963 2.25872 -39.1145 164.602 -6.47437 75.6019 -75.7244 1.9337 -1.95396 67.299 -8.39976 -4.95241 -38.5638 -18.8029 18.0972 0.908923 7.76671 -89.5924 11.3358 1.99869 0.612296 -0.333681 2.02368 0.523705 -22.8775 1.72227 1.18482 -2.86487 1.72225 1.18482 84.84 -39.256 -112.555 -146.462 -51.6942 -150.695 66.8879 -39.6315 -45.7673 -10.6144 -8.34982 83.5571 -150.202 -30.5299 -12.7581 -29.2889 18.2759 23.3604 -13.3824 -17.4575 -0.0209387 20.4769 -7.75086 -41.0281 22.9394 -0.771585 12.2307 -81.703 -8.27641 5.69972 
-320.714 83.5565 -308.571 95.3078 -36.0571 77.5027 -168.07 44.8776 72.5286 -3.83489 -86.0301 21.4752 51.7923 -20.5005 -128.491 25.5187 1.49474 -39.0507 165.882 -5.89293 76.1244 -72.4077 2.57418 -2.13688 58.4377 -5.55997 -3.80558 -29.7716 -14.5696 16.025 0.338608 7.39534 -89.3667 12.077 0.972427 1.157 0.405983 1.0224 1.11308 -22.1264 0.579775 1.39573 -2.11372 0.57979 1.39573 81.2311 -39.3576 -118.596 -138.941 -55.7366 -143.992 70.3227 -42.816 -36.488 -9.62246 -7.77137 81.2043 -143.665 -36.1729 -1.6291 -31.0653 13.9528 19.8037 -9.75527 -15.2957 -0.0151169 18.9029 -6.9636 -39.8334 22.8002 1.02877 10.5527 -67.769 -6.37307 7.2839 
